<svg xmlns="http://www.w3.org/2000/svg" fill="currentColor" data-icon="icon-messages-stroke" viewBox="0 0 24 24" width="1em" height="1em" display="flex" role="img" class="size-9"><path d="M20.9277 11.9385C20.9276 7.33919 16.9819 3.52051 12.0009 3.52051C7.0201 3.52073 3.07523 7.33932 3.07513 11.9385V11.9541L3.07416 11.9688C3.05406 12.6536 3.16773 13.2252 3.33197 13.7822C3.41646 14.0687 3.5114 14.3424 3.6142 14.6436C3.71404 14.936 3.82074 15.2538 3.90912 15.585C4.09044 16.2645 4.19971 17.0211 4.0683 17.9131C3.98022 18.5107 3.78609 19.1377 3.46869 19.8203C4.76942 20.2088 6.09062 19.8768 7.59467 19.207L8.06049 19L8.50482 19.2471C9.60171 19.8559 10.4728 20.3554 12.0009 20.3555C16.982 20.3555 20.9275 16.5376 20.9277 11.9385ZM22.9687 11.9385C22.9685 17.7643 18.0066 22.3965 12.0009 22.3965C10.1701 22.3964 8.96548 21.8273 7.95013 21.2725C6.02559 22.0608 3.82847 22.5044 1.54779 21.1982L0.645447 20.6816L1.17865 19.7891C1.73294 18.8616 1.96855 18.1664 2.04974 17.6152C2.12947 17.074 2.06993 16.6079 1.93744 16.1113C1.86892 15.8545 1.78259 15.5957 1.68256 15.3027C1.58545 15.0183 1.47352 14.697 1.37396 14.3594C1.17016 13.6682 1.00578 12.8728 1.03412 11.9082H1.0351C1.05234 6.09675 6.00561 1.47972 12.0009 1.47949C18.0068 1.47949 22.9686 6.11265 22.9687 11.9385Z"></path></svg>